<svg class="plot-d6a7b5" fill="currentColor" font-family="system-ui, sans-serif" font-size="10" text-anchor="middle" width="600" height="380" viewBox="0 0 600 380" style="font-family: var(--chart-font, system-ui, -apple-system, &quot;Segoe UI&quot;, sans-serif); font-size: 13px; background: transparent; --plot-background: var(--paper, #fff); width: 100%; height: 380px;"><style>:where(.plot-d6a7b5) {
  --plot-background: white;
  display: block;
  height: auto;
  height: intrinsic;
  max-width: 100%;
}
:where(.plot-d6a7b5 text),
:where(.plot-d6a7b5 tspan) {
  white-space: pre;
}</style><g aria-label="y-axis tick label" text-anchor="end" font-variant="tabular-nums" transform="translate(-8.5,0.5)"><text y="0.32em" transform="translate(40,350)">0</text><text y="0.32em" transform="translate(40,308.75)">10</text><text y="0.32em" transform="translate(40,267.5)">20</text><text y="0.32em" transform="translate(40,226.25)">30</text><text y="0.32em" transform="translate(40,185)">40</text><text y="0.32em" transform="translate(40,143.75)">50</text><text y="0.32em" transform="translate(40,102.5)">60</text><text y="0.32em" transform="translate(40,61.25)">70</text><text y="0.32em" transform="translate(40,20)">80</text></g><g aria-label="x-axis tick label" font-variant="tabular-nums" transform="translate(0.5,9.5)"><text y="0.71em" transform="translate(40,350)">2005</text><text y="0.71em" transform="translate(125.25,350)">2010</text><text y="0.71em" transform="translate(210.5,350)">2015</text><text y="0.71em" transform="translate(295.75,350)">2020</text><text y="0.71em" transform="translate(381,350)">2025</text></g><g aria-label="y-grid" aria-hidden="true" stroke="var(--rule, #dfe3e9)" stroke-dasharray="2 4" transform="translate(0,0.5)"><line x1="40" x2="381" y1="350" y2="350"></line><line x1="40" x2="381" y1="308.75" y2="308.75"></line><line x1="40" x2="381" y1="267.5" y2="267.5"></line><line x1="40" x2="381" y1="226.25" y2="226.25"></line><line x1="40" x2="381" y1="185" y2="185"></line><line x1="40" x2="381" y1="143.75" y2="143.75"></line><line x1="40" x2="381" y1="102.5" y2="102.5"></line><line x1="40" x2="381" y1="61.25" y2="61.25"></line><line x1="40" x2="381" y1="20" y2="20"></line></g><clipPath id="plot-clip"><rect x="40" y="20" width="341" height="330"></rect></clipPath><g aria-label="rule" clip-path="url(#plot-clip)"><g stroke="var(--rule, #dfe3e9)" transform="translate(0,0.5)"><line x1="40" x2="381" y1="350" y2="350"></line></g></g><g aria-label="area"><path fill="#4269d0" d="M40,172.625L125.25,193.25L210.5,226.25L295.75,251L381,271.625L381,350L295.75,350L210.5,350L125.25,350L40,350Z"></path><path fill="#efb118" d="M40,147.875L125.25,156.125L210.5,176.75L295.75,209.75L381,238.625L381,271.625L295.75,251L210.5,226.25L125.25,193.25L40,172.625Z"></path></g><g aria-label="rule" stroke="var(--ink, #15181c)" stroke-dasharray="6 4" transform="translate(0,0.5)"><line x1="40" x2="381" y1="284" y2="284"></line></g><g aria-label="text" fill="var(--ink, #15181c)" stroke="var(--paper, #fff)" stroke-width="3" stroke-linejoin="round" paint-order="stroke" text-anchor="start" transform="translate(8.5,0.5)"><text y="0.32em" transform="translate(381,284)">Safe Routes goal, 16 a year</text></g><g aria-label="text" stroke="var(--paper, #fff)" stroke-width="3" stroke-linejoin="round" paint-order="stroke" text-anchor="start" transform="translate(8.5,0.5)"><text y="0.32em" transform="translate(381,310.8125)" fill="#4269d0">Walking 19</text><text y="0.32em" transform="translate(381,255.125)" fill="#efb118">Biking 8</text></g><g aria-label="tip" fill="var(--plot-background)" stroke="var(--rule, #dfe3e9)" pointer-events="none" text-anchor="start" transform="translate(0.5,0.5)"></g></svg>